<svg width="300" height="300" xmlns="http://www.w3.org/2000/svg">
    <!--Outer Screen-->
    <polygon points="10 20 150 10 170 90 30 120 10 20"
             stroke="black" fill="white" stroke-width="3"></polygon>
    <!--Inner Screen-->
    <polygon points="15 25 145 15 163 85 35 115 15 25"
             stroke="black" fill="black" stroke-width="3"></polygon>
    <!--Laptop Bottom-->
    <polygon points="30 122 170 92 250 150 90 200 30 122"
             stroke="black" fill="white" stroke-width="3"></polygon>
    <!--Keyboard-->
    <polygon points="45 125 165 100 205 130 80 165 45 125"
             stroke="black" fill="black" stroke-width="3"></polygon>
    <!--Touch Pad-->
    <polygon points="140 158 165 150 175 160 148 170 140 158"
             stroke="black" fill="black" stroke-width="3"></polygon>

    <text x="25" y="55" fill="green"
          font-family="Verdana"
          font-size="25"
          transform="rotate(-8 20,40)">
        Robby
    </text>
    <text x="25" y="90" fill="green"
          font-family="Verdana"
          font-size="25"
          transform="rotate(-8 20,40)">
        Codes|
    </text>
</svg>